<svg width="43" height="43" viewBox="0 0 43 43" fill="none" xmlns="http://www.w3.org/2000/svg">
<path d="M22.0273 0C31.6122 0 36.4052 -0.000118239 39.3828 2.97754C42.3603 5.95522 42.3604 10.7482 42.3604 20.333V22.0273C42.3604 31.6122 42.3605 36.4052 39.3828 39.3828C36.4052 42.3605 31.6122 42.3604 22.0273 42.3604H20.333C10.7482 42.3604 5.95522 42.3603 2.97754 39.3828C-0.000118406 36.4052 0 31.6122 0 22.0273V20.333C0 10.748 -0.000132071 5.95521 2.97754 2.97754C5.95521 -0.000132071 10.748 0 20.333 0H22.0273ZM7.14844 12.8848C7.37794 23.8983 12.8846 30.5166 22.5391 30.5166H23.0859V24.2158C26.6335 24.5688 29.3169 27.1632 30.3936 30.5166H35.4062C34.0295 25.5042 30.4105 22.7328 28.1514 21.6738C30.4105 20.3677 33.5877 17.1913 34.3467 12.8848H29.793C28.8045 16.3794 25.8746 19.5564 23.0859 19.8564V12.8848H18.5322V25.0986C15.7083 24.3925 12.1433 20.9682 11.9844 12.8848H7.14844Z" fill="currentColor"/>
</svg>
